<svg width="137" height="62" viewBox="0 0 137 62" fill="none" xmlns="http://www.w3.org/2000/svg">
<rect x="30.9098" y="9.86523" width="23" height="23" rx="11.5" transform="rotate(104.774 30.9098 9.86523)" fill="#FCB9B9"/>
<path d="M32.648 43V8.44H39.464L56.6 25.768V36.952L38.744 18.904L41.192 17.896V43H32.648ZM53.768 43V8.44H62.264V43H53.768ZM74.1935 43V35.608H81.8735C83.6335 35.608 85.1375 35.32 86.3855 34.744C87.6335 34.136 88.6575 33.304 89.4575 32.248C90.2575 31.192 90.8495 29.976 91.2335 28.6C91.6175 27.224 91.8095 25.752 91.8095 24.184C91.8095 21.528 91.1055 19.48 89.6975 18.04C88.3215 16.568 86.0495 15.832 82.8815 15.832H74.1935V8.44H82.8815C88.7055 8.44 93.0895 9.8 96.0335 12.52C99.0095 15.208 100.498 19.064 100.498 24.088C100.498 26.616 100.13 29.016 99.3935 31.288C98.6895 33.56 97.5695 35.576 96.0335 37.336C94.5295 39.096 92.5775 40.488 90.1775 41.512C87.7775 42.504 84.8655 43 81.4415 43H74.1935ZM69.5855 43V8.44H78.1295V43H69.5855ZM110.756 34.792V27.88H118.868C120.468 27.88 121.764 27.544 122.756 26.872C123.78 26.168 124.532 25.272 125.012 24.184C125.492 23.096 125.732 21.928 125.732 20.68C125.732 18.92 125.22 17.624 124.196 16.792C123.204 15.96 121.876 15.544 120.212 15.544H110.756V8.44H120.26C123.396 8.44 125.988 8.936 128.036 9.928C130.116 10.888 131.668 12.264 132.692 14.056C133.748 15.848 134.276 17.96 134.276 20.392C134.276 22.632 133.86 24.648 133.028 26.44C132.196 28.2 131.06 29.704 129.62 30.952C128.212 32.2 126.596 33.16 124.772 33.832C122.948 34.472 121.044 34.792 119.06 34.792H110.756ZM106.148 43V8.44H114.692V43H106.148ZM125.924 43L119.012 33.016L126.98 31.672L135.332 42.52V43H125.924Z" fill="white"/>
<path d="M16.9849 17.5694C23.1262 19.189 26.7918 25.4805 25.1722 31.6218V31.6218C23.5526 37.7631 17.2611 41.4286 11.1198 39.809V39.809C4.97854 38.1894 1.31297 31.898 2.93257 25.7567V25.7567C4.55217 19.6154 10.8436 15.9498 16.9849 17.5694V17.5694Z" fill="#9ADDE7"/>
<rect x="24.9142" y="15.9473" width="15.4788" height="15.4788" rx="7.73941" transform="rotate(104.774 24.9142 15.9473)" fill="#B37BD5"/>
</svg>
